<svg clip-rule="evenodd" fill-rule="evenodd" stroke-linejoin="round" stroke-miterlimit="2" viewBox="0 0 32 32" xmlns="http://www.w3.org/2000/svg"><g transform="scale(.217368 .254408)"><path d="m0 0h147.216v125.782h-147.216z" fill="none"/><path d="m32 8.5v16.137c0 4.064-3.242 7.363-7.236 7.363h-17.528c-3.994 0-7.236-3.299-7.236-7.363v-17.274c0-4.064 3.242-7.363 7.236-7.363h15.369l.165-.168c1.153-1.535 2.971-2.526 5.014-2.526 3.482 0 6.309 2.876 6.309 6.42 0 1.894-.809 3.598-2.093 4.774z" fill="#3b82f6" transform="matrix(4.31811 0 0 3.62546 0 9.7674)"/><path d="m1012.9 175.92c-54.422-54.422-142.69-54.422-197.11 0l-320.06 320.06c-6.047 6.047-10.125 13.734-11.812 22.078l-33.984 170.02c-2.859 14.156 1.594 28.781 11.812 39s24.844 14.672 39 11.812l170.02-33.984c8.344-1.688 16.031-5.766 22.078-11.812l320.056-320.06c54.43-54.422 54.43-142.69 0-197.11zm-135.98 61.078c20.672-20.672 54.188-20.672 74.906 0 20.672 20.719 20.672 54.234 0 74.906l-310.82 310.82-93.656 18.75 18.75-93.656zm-617.72 159c0-55.688 45.094-100.78 100.78-100.78h171c23.859 0 43.219-19.359 43.219-43.219s-19.359-43.219-43.219-43.219h-171c-103.41 0-187.22 83.812-187.22 187.22v432c0 103.41 83.812 187.22 187.22 187.22h432c103.41 0 187.22-83.812 187.22-187.22v-171c0-23.859-19.359-43.219-43.219-43.219s-43.219 19.359-43.219 43.219v171c0 55.688-45.094 100.78-100.78 100.78h-432c-55.688 0-100.78-45.094-100.78-100.78z" fill="#fff" transform="matrix(.152621 0 0 .130401 -19.9854 -12.1103)"/></g></svg>