<?xml version="1.0" encoding="UTF-8" standalone="no"?>
<!DOCTYPE svg PUBLIC "-//W3C//DTD SVG 1.1//EN" "http://www.w3.org/Graphics/SVG/1.1/DTD/svg11.dtd">
<svg width="100%" height="100%" viewBox="0 0 32 32" version="1.1" xmlns="http://www.w3.org/2000/svg" xmlns:xlink="http://www.w3.org/1999/xlink" xml:space="preserve" xmlns:serif="http://www.serif.com/" style="fill-rule:evenodd;clip-rule:evenodd;stroke-linejoin:round;stroke-miterlimit:2;">
    <g transform="matrix(0.034251,0,0,0.0342512,-4.96547,-3.7385)">
        <path d="M1012.9,175.92C958.478,121.498 870.21,121.498 815.79,175.92L495.73,495.98C489.683,502.027 485.605,509.714 483.918,518.058L449.934,688.078C447.075,702.234 451.528,716.859 461.746,727.078C471.964,737.297 486.59,741.75 500.746,738.89L670.766,704.906C679.11,703.218 686.797,699.14 692.844,693.094L1012.9,373.034C1067.33,318.612 1067.33,230.344 1012.9,175.924L1012.9,175.92ZM876.92,236.998C897.592,216.326 931.108,216.326 951.826,236.998C972.498,257.717 972.498,291.232 951.826,311.904L641.006,622.724L547.35,641.474L566.1,547.818L876.92,236.998ZM259.2,395.998C259.2,340.31 304.294,295.218 359.98,295.218L530.98,295.218C554.839,295.218 574.199,275.859 574.199,251.999C574.199,228.139 554.84,208.78 530.98,208.78L359.98,208.78C256.57,208.78 172.76,292.592 172.76,396L172.76,828C172.76,931.41 256.572,1015.22 359.98,1015.22L791.98,1015.22C895.39,1015.22 979.2,931.408 979.2,828L979.2,657C979.2,633.141 959.841,613.781 935.981,613.781C912.121,613.781 892.762,633.14 892.762,657L892.762,828C892.762,883.688 847.668,928.78 791.982,928.78L359.982,928.78C304.294,928.78 259.202,883.686 259.202,828L259.2,395.998Z" style="fill:rgb(68,138,255);"/>
    </g>
</svg>
